<?xml version="1.0" encoding="iso-8859-1"?>
<!-- Uploaded to: SVG Repo, www.svgrepo.com, Generator: SVG Repo Mixer Tools -->
<svg style="transform: rotate(180deg); transform-origin: center;" version="1.1" id="Layer_1" xmlns="http://www.w3.org/2000/svg" xmlns:xlink="http://www.w3.org/1999/xlink" viewBox="0 0 511.999 511.999" xml:space="preserve">
<path style="fill:#333E48;" d="M226.543,193.931L4.748,415.726c-6.33,6.33-6.33,16.689,0,23.019l67.422,67.422
	c6.329,6.329,16.688,6.329,23.018-0.001l221.795-221.795L226.543,193.931z"/>
<rect x="192.975" y="233.012" transform="matrix(-0.7071 -0.7071 0.7071 -0.7071 258.9979 615.2612)" style="opacity:0.2;enable-background:new    ;" width="127.898" height="41.957"/>
<rect x="20.606" y="405.743" transform="matrix(-0.7071 -0.7071 0.7071 -0.7071 -157.1372 787.6305)" style="fill:#FFCE00;" width="127.898" height="41.233"/>
<path style="fill:#333E48;" d="M445.792,203.929c6.824-5.794,7.229-15.712,0.9-22.042L329.026,64.221
	c-6.329-6.33-16.25-5.926-22.044,0.9L211.41,177.712c-5.793,6.824-5.355,17.587,0.975,23.917l96.897,96.897
	c6.329,6.329,17.092,6.768,23.916,0.974L445.792,203.929z"/>
<g>
	<polygon style="fill:#7D868C;" points="302.504,70.399 291.935,82.849 428.064,218.979 440.514,208.409 	"/>
	<path style="fill:#7D868C;" d="M163.575,382.741c-9.778,9.778-25.631,9.778-35.409,0c-9.778-9.778-9.778-25.631,0-35.409
		l52.174-52.174c9.779-9.779,25.631-9.779,35.41,0c9.777,9.777,9.777,25.631,0,35.408L163.575,382.741z"/>
</g>
<rect x="133.918" y="346.479" transform="matrix(-0.7071 -0.7071 0.7071 -0.7071 22.5026 713.1838)" style="opacity:0.2;enable-background:new    ;" width="50.076" height="10.905"/>
<rect x="155.393" y="305.567" transform="matrix(-0.7071 -0.7071 0.7071 -0.7071 74.3337 691.7392)" style="fill:#FFCE00;" width="50.076" height="49.815"/>
<rect x="155.396" y="322.334" transform="matrix(-0.7071 -0.7071 0.7071 -0.7071 74.3413 691.7376)" style="opacity:0.2;enable-background:new    ;" width="50.076" height="16.276"/>
<g>
	<path style="fill:#FFCE00;" d="M417.124,101.927c-2.082,0-4.166-0.794-5.755-2.383c-3.178-3.179-3.178-8.331,0-11.51l66.894-66.894
		c3.179-3.177,8.331-3.177,11.51,0c3.178,3.179,3.178,8.331,0,11.511l-66.892,66.894
		C421.289,101.132,419.207,101.927,417.124,101.927z"/>
	<path style="fill:#FFCE00;" d="M372.33,74.508c-4.494,0-8.138-3.643-8.138-8.138l-0.001-57.146c0-4.494,3.643-8.138,8.138-8.138
		c4.494,0,8.138,3.643,8.138,8.138l0.001,57.146C380.468,70.864,376.826,74.508,372.33,74.508z"/>
	<path style="fill:#FFCE00;" d="M446.715,159.874c-4.494,0-8.138-3.643-8.138-8.138c0-4.494,3.643-8.138,8.138-8.138l57.146-0.001
		c4.494,0,8.138,3.643,8.138,8.138c0,4.494-3.643,8.138-8.138,8.138L446.715,159.874z"/>
</g>
</svg>
